<?xml version="1.0" standalone="no"?>
<!DOCTYPE svg PUBLIC "-//W3C//DTD SVG 20010904//EN"
 "http://www.w3.org/TR/2001/REC-SVG-20010904/DTD/svg10.dtd">
<svg version="1.0" xmlns="http://www.w3.org/2000/svg"
 width="700.000000pt" height="700.000000pt" viewBox="0 0 700.000000 700.000000"
 preserveAspectRatio="xMidYMid meet">
<metadata>
Created by potrace 1.14, written by Peter Selinger 2001-2017
</metadata>
<g transform="translate(0.000000,700.000000) scale(0.100000,-0.100000)"
fill="#000000" stroke="none">
<path d="M3410 6287 c-25 -7 -431 -206 -903 -443 -878 -439 -921 -462 -971
-543 -87 -139 -60 -333 62 -443 26 -24 327 -179 893 -463 470 -235 872 -434
894 -441 60 -22 133 -26 195 -10 83 22 1770 867 1821 913 126 114 152 313 59
448 -16 22 -43 54 -62 72 -35 33 -1743 893 -1808 910 -53 14 -130 14 -180 0z"/>
<path d="M1332 4109 c-104 -20 -199 -96 -249 -197 l-28 -57 0 -1095 0 -1095
27 -57 c56 -120 49 -116 861 -521 447 -223 757 -371 788 -378 155 -33 318 51
388 201 l26 55 0 1095 0 1095 -27 56 c-58 120 -45 112 -844 511 -401 201 -745
370 -764 376 -49 16 -127 21 -178 11z"/>
<path d="M5530 4108 c-52 -9 -1469 -712 -1542 -765 -25 -18 -60 -55 -77 -82
-65 -100 -62 -42 -59 -1223 l3 -1073 28 -60 c68 -145 233 -229 386 -196 34 7
327 148 790 379 810 404 803 400 859 520 l27 57 3 1060 c2 773 0 1075 -8 1115
-40 188 -215 303 -410 268z"/>
</g>
</svg>
